<?xml version="1.0" encoding="UTF-8"?><svg id="Ebene_2" xmlns="http://www.w3.org/2000/svg" viewBox="0 0 1003.09 470.89"><defs><style>.cls-1{stroke-width:0px;}</style></defs><g id="Ebene_1-2"><path class="cls-1" d="m459.39,47.59C432.21,19.64,394.56,1.93,352.73.76c-2.86-.05-5.78.58-8.4,1.75L11.79,150.46c-7.13,3.2-11.79,10.34-11.79,18.2v134.37c0,7.81,4.66,14.94,11.79,18.14l332.54,147.96c2.62,1.21,5.54,1.84,8.4,1.75,83.61-2.33,150.62-70.8,150.62-154.95v-160.18c0-42.07-16.74-80.26-43.96-108.16Zm-111.03,210.31c0,32.07-25.96,58.03-58.03,58.03h-115.45c-10.96,0-19.84-8.92-19.84-19.89v-120.44c0-10.97,8.88-19.85,19.84-19.85h116.71c31.34,0,56.77,25.38,56.77,56.73v45.42Z"/><path class="cls-1" d="m998.85,328.79l-311.97,138.79c-3.69,1.65-7.67,2.52-11.75,2.52h-6.69c-78.52,0-142.18-63.67-142.18-142.18v-176.54C526.26,70.1,590.21,3.82,670.57.03c4.47-.19,8.98.63,13.06,2.43l314.88,138.73c7.08,3.11,4.85,13.69-2.91,13.69h-272.04c-23.34,0-42.26,18.92-42.26,42.31v75.6c0,23.35,18.92,42.27,42.26,42.27h272.38c7.71,0,9.94,10.58,2.91,13.73Z"/></g></svg>